<svg xmlns="http://www.w3.org/2000/svg" version="1.1" xmlns:xlink="http://www.w3.org/1999/xlink" xmlns:svgjs="http://svgjs.dev/svgjs" viewBox="0 0 1920 1080" class="overflow-hidden rounded-md drop-shadow-lg transition duration-300" style="overflow: hidden; height: 85vh;"><rect width="1920" height="1080" fill="#22194d"></rect><g clip-path="url(&quot;#SvgjsClipPath1137&quot;)"><g transform="matrix(1.0662614327518054,0.4307975824282988,-0.4307975824282988,1.0662614327518054,170.58900846105223,-439.1441444253296)"><path d="M0,-1080C8.561159075380937,-1004.2243120237471,47.50839794890051,-784.2187661572424,51.366954452285626,-625.3458721424822C55.22551095567074,-466.47297812772206,35.17717321258208,-274.6696386250616,23.1513390203107,-126.76263591143888C11.125504828039317,21.144366802183868,-14.6655809013815,114.25848711189084,-20.788050701342684,262.09614413925414C-26.910520501303868,409.9338011666174,-24.7845690274498,602.8594171496401,-13.583479779456411,760.2633062527409C-2.382390531463022,917.6671953558417,51.90482423749008,1055.0161523044007,46.418484786617654,1206.5194787578594C40.932145335745226,1358.022805211318,-38.765102353588055,1510.3698447664692,-46.501516484690995,1669.2832649734926C-54.237930615793935,1828.196685180516,-7.750252747448499,2078.213877495582,0,2160L 1920 2160 L 1920 -1080 Z" fill="url(&quot;#SvgjsLinearGradient1127&quot;)"></path><path d="M192,-1080C194.8373230526244,-971.3135984521181,210.16424708951064,-642.0610126173231,209.0239383157465,-427.8815907127082C207.88362954198237,-213.70216880809335,190.75659336527946,-14.108790463315842,185.15814735741517,205.07653142768922C179.5597013495509,424.2618533186943,164.13172140800356,661.8670110955337,175.4332622685608,887.2303406333222C186.73480312911806,1112.5936701711107,250.2062695655189,1345.128232093307,252.96739252075878,1557.2565086544198C255.72851547599865,1769.3847852155327,202.16123208679312,2059.542751442403,192,2160L 1920 2160 L 1920 -1080 Z" fill="url(&quot;#SvgjsLinearGradient1128&quot;)"></path><path d="M384,-1080C382.98039390114496,-965.5883394180104,386.83348271409756,-599.9639655275092,377.8823634068698,-393.53003650806204C368.931244099642,-187.09610748861485,337.8594629564086,-58.23978992080936,330.2932841566333,158.60357411668315C322.72710535685803,375.44693815417565,327.99801935941565,687.6747277555864,332.48529060821795,907.530147716893C336.97256185702025,1127.3855676781995,348.63112675081686,1268.9911185040048,357.2169116494472,1477.7360938845227C365.8026965480775,1686.4810692650406,379.53615194157453,2046.2893489807539,384,2160L 1920 2160 L 1920 -1080 Z" fill="url(&quot;#SvgjsLinearGradient1129&quot;)"></path><path d="M576,-1080C579.2191411520732,-976.0806230421173,599.9799962665926,-673.8215184800183,595.3148469124394,-456.4837382527036C590.6496975582862,-239.1459580253888,559.0829305550847,-2.131989046761703,548.009103875081,224.02668136388868C536.9352771950773,450.1853517745391,517.9405221302686,689.3700614797358,528.8718868324174,900.4682842111988C539.8032515345662,1111.5665069426618,605.7426065600434,1280.6940651212,613.5972920879739,1490.616017752667C621.4519776159043,1700.5379703841338,582.2662153479956,2048.436002958778,576,2160L 1920 2160 L 1920 -1080 Z" fill="url(&quot;#SvgjsLinearGradient1130&quot;)"></path><path d="M768,-1080C772.7899215995715,-963.1831679022387,805.1014418963783,-604.5742195487396,796.7395295974286,-379.09900741343216C788.3776172984789,-153.62379527812465,712.3714993955338,55.34473063184586,717.8285262063014,272.8512728118451C723.285553017069,490.3578149918443,818.9865318152109,716.9204804912383,829.4816904620343,925.9402456665633C839.9768491088577,1134.9600108418883,791.0464264975807,1321.2932381415555,780.7994780872416,1526.969863863795C770.5525296769025,1732.6464895860342,770.1332463478736,2054.4949773106323,768,2160L 1920 2160 L 1920 -1080 Z" fill="url(&quot;#SvgjsLinearGradient1131&quot;)"></path><path d="M960,-1080C960.1761267985393,-1022.566689860786,965.8916002859326,-871.2117307448157,961.0567607912353,-735.400139164716C956.2219212965381,-599.5885475846164,931.0276160949045,-415.5907987862931,930.9909630318162,-265.1304505194025C930.954309968728,-114.67010225251187,953.8705157816547,22.555472941673514,960.8368424127061,167.36195043662764C967.8031690437575,312.16842793158173,965.0562074236319,471.12180625687574,972.7889228181248,603.7084144503223C980.5216382126176,736.2950226437688,1014.406247274642,829.5139558700445,1007.2331347796633,962.8815995973068C1000.0600222846845,1096.2492433245693,927.7174143716193,1282.5498725100838,929.750247848252,1403.9142768138965C931.7830813248847,1525.2786811177093,1014.388510280835,1565.0537382224998,1019.4301356394596,1691.0680254201836C1024.4717609980844,1817.0823126178675,969.9050226065766,2081.8446709033637,960,2160L 1920 2160 L 1920 -1080 Z" fill="url(&quot;#SvgjsLinearGradient1132&quot;)"></path><path d="M1152,-1080C1147.1194444830076,-969.777155857868,1124.2265629962328,-643.2000650385997,1122.7166668980447,-418.6629351472084C1121.2067707998565,-194.125805255817,1142.2567517160778,49.53163723326938,1142.9406234108715,267.22277934834824C1143.6244951056651,484.9139214634271,1116.714369007152,674.1560252551623,1126.8198970668066,887.4839175432647C1136.925425126461,1100.811809831367,1199.3771079465996,1335.104119334174,1203.5737917687984,1547.190133076963C1207.7704755909972,1759.2761468197523,1160.5956319614663,2057.8650221794937,1152,2160L 1920 2160 L 1920 -1080 Z" fill="url(&quot;#SvgjsLinearGradient1133&quot;)"></path><path d="M1344,-1080C1341.324588791452,-954.8723761945212,1338.078089215362,-607.1192664705194,1327.9475327487119,-329.23425716712734C1317.8169762820617,-51.349247863735286,1286.8868795727226,300.3474741916675,1283.2166612000985,587.3100558203523C1279.5464428274745,874.2726374490371,1295.7956660463176,1130.4262419083736,1305.9262225129678,1392.5412326049816C1316.056778979618,1654.6562233015895,1337.654370418828,2032.0902054341636,1344,2160L 1920 2160 L 1920 -1080 Z" fill="url(&quot;#SvgjsLinearGradient1134&quot;)"></path><path d="M1536,-1080C1532.0843532871104,-997.1566875687458,1509.1854667930347,-772.3065257897756,1512.5061197226623,-582.9401254124748C1515.82677265229,-393.573725035174,1550.925950062949,-123.17799754477647,1555.9239175777655,56.19840226380464C1560.921885092582,235.57480207238575,1554.4102002159632,318.488983580491,1542.4939248115616,493.3182734390117C1530.57764940716,668.1475632975324,1477.3697887181845,914.8456338408278,1484.4262651513557,1105.1741414149292C1491.4827415845268,1295.5026489890306,1576.237160935815,1459.4850091194419,1584.832783410589,1635.2893188836204C1593.428405885363,1811.0936286477988,1544.138797235098,2072.5482198139366,1536,2160L 1920 2160 L 1920 -1080 Z" fill="url(&quot;#SvgjsLinearGradient1135&quot;)"></path><path d="M1728,-1080C1729.0460548792003,-984.5969674023072,1735.5782111027756,-688.7046586248889,1734.2763292752013,-507.5818044138432C1732.974447447627,-326.4589502027975,1727.770037659016,-164.63974910125447,1720.1887090345544,6.7371252662740915C1712.607380410093,178.11399963380265,1693.6400061507713,339.34971791356634,1688.7883575284316,520.6794417913281C1683.9367089060918,702.00916566909,1679.906069208346,919.3931338632871,1691.0788173005153,1094.715468532845C1702.2515653926846,1270.0378032024032,1749.6713156315334,1395.0660278974838,1755.8248460814475,1572.6134498086763C1761.9783765313616,1750.1608717198687,1732.637474346908,2062.1022416347796,1728,2160L 1920 2160 L 1920 -1080 Z" fill="url(&quot;#SvgjsLinearGradient1136&quot;)"></path></g></g><defs><linearGradient x1="0.1" y1="0" x2="0" y2="1" id="SvgjsLinearGradient1127"><stop stop-color="#22194d" offset="0"></stop><stop stop-color="#19194d" offset="0"></stop></linearGradient><linearGradient x1="0.1" y1="0" x2="0" y2="1" id="SvgjsLinearGradient1128"><stop stop-color="#201748" offset="0"></stop><stop stop-color="#181748" offset="0.1"></stop></linearGradient><linearGradient x1="0.1" y1="0" x2="0" y2="1" id="SvgjsLinearGradient1129"><stop stop-color="#1e1643" offset="0"></stop><stop stop-color="#161643" offset="0.2"></stop></linearGradient><linearGradient x1="0.1" y1="0" x2="0" y2="1" id="SvgjsLinearGradient1130"><stop stop-color="#1b143e" offset="0"></stop><stop stop-color="#14143e" offset="0.3"></stop></linearGradient><linearGradient x1="0.1" y1="0" x2="0" y2="1" id="SvgjsLinearGradient1131"><stop stop-color="#191239" offset="0"></stop><stop stop-color="#121239" offset="0.4"></stop></linearGradient><linearGradient x1="0.1" y1="0" x2="0" y2="1" id="SvgjsLinearGradient1132"><stop stop-color="#171134" offset="0"></stop><stop stop-color="#111134" offset="0.5"></stop></linearGradient><linearGradient x1="0.1" y1="0" x2="0" y2="1" id="SvgjsLinearGradient1133"><stop stop-color="#150f2f" offset="0"></stop><stop stop-color="#100f2f" offset="0.6"></stop></linearGradient><linearGradient x1="0.1" y1="0" x2="0" y2="1" id="SvgjsLinearGradient1134"><stop stop-color="#120d29" offset="0"></stop><stop stop-color="#0d0d29" offset="0.7"></stop></linearGradient><linearGradient x1="0.1" y1="0" x2="0" y2="1" id="SvgjsLinearGradient1135"><stop stop-color="#100c24" offset="0"></stop><stop stop-color="#0c0c24" offset="0.8"></stop></linearGradient><linearGradient x1="0.1" y1="0" x2="0" y2="1" id="SvgjsLinearGradient1136"><stop stop-color="#0e0a1f" offset="0"></stop><stop stop-color="#0a0a1f" offset="0.9"></stop></linearGradient><clipPath id="SvgjsClipPath1137"><rect width="1920" height="1080"></rect></clipPath></defs></svg>