<?xml version="1.0" encoding="UTF-8" standalone="no"?>
<!DOCTYPE svg PUBLIC "-//W3C//DTD SVG 1.1//EN" "http://www.w3.org/Graphics/SVG/1.1/DTD/svg11.dtd">
<svg width="100%" height="100%" viewBox="0 0 1100 255" version="1.1" xmlns="http://www.w3.org/2000/svg" xmlns:xlink="http://www.w3.org/1999/xlink" xml:space="preserve" xmlns:serif="http://www.serif.com/" style="fill-rule:evenodd;clip-rule:evenodd;stroke-linejoin:round;stroke-miterlimit:2;">
    <g transform="matrix(1,0,0,1,-2539.06,-3407.41)">
        <g id="logo-horizontal" serif:id="logo horizontal" transform="matrix(1.49505,0,0,0.333244,3973.55,2879.51)">
            <rect x="-959.49" y="1584.14" width="735.185" height="762.594" style="fill:none;"/>
            <g transform="matrix(0.747611,0,0,3.06825,-944.829,463.582)">
                <path d="M495.77,541.31L483.288,585.505L477.217,585.505L468.125,553.206C467.735,551.83 467.499,550.33 467.416,548.707L467.293,548.707C467.17,550.227 466.903,551.706 466.492,553.145L457.339,585.505L451.329,585.505L438.385,541.31L444.086,541.31L453.486,575.211C453.877,576.629 454.123,578.108 454.226,579.649L454.38,579.649C454.483,578.56 454.801,577.081 455.335,575.211L465.105,541.31L470.067,541.31L479.436,575.458C479.765,576.629 480.011,578.005 480.176,579.587L480.299,579.587C480.381,578.519 480.658,577.101 481.131,575.334L490.161,541.31L495.77,541.31Z" style="fill:rgb(217,232,245);fill-rule:nonzero;"/>
                <path d="M527.335,585.505L503.912,585.505L503.912,541.31L526.349,541.31L526.349,545.995L509.09,545.995L509.09,560.695L525.054,560.695L525.054,565.349L509.09,565.349L509.09,580.82L527.335,580.82L527.335,585.505Z" style="fill:rgb(217,232,245);fill-rule:nonzero;"/>
                <path d="M537.419,585.505L537.419,541.31L549.993,541.31C553.815,541.31 556.845,542.245 559.085,544.115C561.324,545.984 562.444,548.419 562.444,551.419C562.444,553.925 561.766,556.103 560.41,557.952C559.054,559.801 557.184,561.116 554.801,561.897L554.801,562.02C557.78,562.37 560.163,563.495 561.951,565.395C563.738,567.296 564.632,569.766 564.632,572.807C564.632,576.588 563.276,579.649 560.564,581.991C557.852,584.333 554.431,585.505 550.301,585.505L537.419,585.505ZM542.596,545.995L542.596,560.264L547.897,560.264C550.733,560.264 552.962,559.581 554.585,558.214C556.208,556.848 557.02,554.922 557.02,552.436C557.02,548.142 554.195,545.995 548.545,545.995L542.596,545.995ZM542.596,564.917L542.596,580.82L549.623,580.82C552.664,580.82 555.022,580.101 556.696,578.663C558.371,577.225 559.208,575.252 559.208,572.745C559.208,567.527 555.653,564.917 548.545,564.917L542.596,564.917Z" style="fill:rgb(217,232,245);fill-rule:nonzero;"/>
                <path d="M594.046,585.505L594.046,541.31L606.25,541.31C621.824,541.31 629.611,548.491 629.611,562.853C629.611,569.674 627.448,575.154 623.124,579.295C618.799,583.435 613.01,585.505 605.757,585.505L594.046,585.505ZM599.223,545.995L599.223,580.82L605.819,580.82C611.613,580.82 616.122,579.269 619.348,576.166C622.574,573.064 624.187,568.667 624.187,562.976C624.187,551.655 618.167,545.995 606.127,545.995L599.223,545.995Z" style="fill:rgb(217,232,245);fill-rule:nonzero;"/>
                <path d="M663.302,585.505L639.88,585.505L639.88,541.31L662.316,541.31L662.316,545.995L645.057,545.995L645.057,560.695L661.022,560.695L661.022,565.349L645.057,565.349L645.057,580.82L663.302,580.82L663.302,585.505Z" style="fill:rgb(217,232,245);fill-rule:nonzero;"/>
                <path d="M706.239,541.31L689.874,585.505L684.173,585.505L668.147,541.31L673.91,541.31L686.145,576.351C686.536,577.481 686.834,578.786 687.039,580.265L687.162,580.265C687.327,579.033 687.666,577.707 688.179,576.29L700.661,541.31L706.239,541.31Z" style="fill:rgb(217,232,245);fill-rule:nonzero;"/>
                <path d="M737.589,585.505L714.166,585.505L714.166,541.31L736.602,541.31L736.602,545.995L719.344,545.995L719.344,560.695L735.308,560.695L735.308,565.349L719.344,565.349L719.344,580.82L737.589,580.82L737.589,585.505Z" style="fill:rgb(217,232,245);fill-rule:nonzero;"/>
                <path d="M770.602,585.505L747.673,585.505L747.673,541.31L752.85,541.31L752.85,580.82L770.602,580.82L770.602,585.505Z" style="fill:rgb(217,232,245);fill-rule:nonzero;"/>
                <path d="M794.616,586.244C788.35,586.244 783.331,584.179 779.561,580.05C775.791,575.92 773.906,570.547 773.906,563.931C773.906,556.822 775.827,551.152 779.669,546.919C783.511,542.687 788.74,540.57 795.356,540.57C801.458,540.57 806.374,542.625 810.103,546.734C813.832,550.843 815.696,556.216 815.696,562.853C815.696,570.064 813.786,575.766 809.964,579.957C806.142,584.149 801.026,586.244 794.616,586.244ZM794.986,545.255C790.343,545.255 786.572,546.929 783.675,550.278C780.778,553.627 779.33,558.024 779.33,563.469C779.33,568.914 780.742,573.295 783.567,576.613C786.393,579.931 790.075,581.591 794.616,581.591C799.465,581.591 803.287,580.008 806.081,576.844C808.875,573.68 810.272,569.253 810.272,563.561C810.272,557.726 808.916,553.216 806.204,550.032C803.492,546.847 799.753,545.255 794.986,545.255Z" style="fill:rgb(217,232,245);fill-rule:nonzero;"/>
                <path d="M831.143,568.801L831.143,585.505L825.965,585.505L825.965,541.31L838.108,541.31C842.834,541.31 846.496,542.461 849.095,544.762C851.694,547.063 852.994,550.309 852.994,554.501C852.994,558.692 851.55,562.123 848.663,564.794C845.777,567.465 841.878,568.801 836.968,568.801L831.143,568.801ZM831.143,545.995L831.143,564.116L836.567,564.116C840.142,564.116 842.869,563.299 844.749,561.666C846.629,560.033 847.569,557.726 847.569,554.747C847.569,548.912 844.118,545.995 837.214,545.995L831.143,545.995Z" style="fill:rgb(217,232,245);fill-rule:nonzero;"/>
                <path d="M886.315,585.505L862.893,585.505L862.893,541.31L885.329,541.31L885.329,545.995L868.07,545.995L868.07,560.695L884.034,560.695L884.034,565.349L868.07,565.349L868.07,580.82L886.315,580.82L886.315,585.505Z" style="fill:rgb(217,232,245);fill-rule:nonzero;"/>
                <path d="M928.081,585.505L921.917,585.505L914.521,573.115C913.843,571.965 913.185,570.984 912.548,570.172C911.911,569.361 911.259,568.698 910.591,568.184C909.924,567.671 909.204,567.296 908.434,567.059C907.663,566.823 906.795,566.705 905.83,566.705L901.577,566.705L901.577,585.505L896.399,585.505L896.399,541.31L909.59,541.31C911.521,541.31 913.303,541.551 914.937,542.034C916.57,542.517 917.988,543.252 919.19,544.238C920.392,545.224 921.332,546.452 922.01,547.921C922.688,549.39 923.027,551.11 923.027,553.083C923.027,554.624 922.796,556.036 922.333,557.321C921.871,558.605 921.214,559.75 920.361,560.757C919.508,561.764 918.481,562.621 917.279,563.33C916.077,564.039 914.726,564.589 913.226,564.979L913.226,565.102C913.966,565.431 914.608,565.806 915.152,566.227C915.697,566.648 916.216,567.147 916.709,567.722C917.202,568.297 917.69,568.95 918.173,569.679C918.656,570.408 919.195,571.256 919.791,572.222L928.081,585.505ZM901.577,545.995L901.577,562.02L908.603,562.02C909.898,562.02 911.095,561.825 912.194,561.435C913.293,561.045 914.243,560.485 915.045,559.755C915.846,559.026 916.473,558.132 916.925,557.074C917.377,556.016 917.603,554.829 917.603,553.514C917.603,551.152 916.837,549.308 915.307,547.982C913.776,546.657 911.562,545.995 908.665,545.995L901.577,545.995Z" style="fill:rgb(217,232,245);fill-rule:nonzero;"/>
            </g>
            <g transform="matrix(0.519719,0,0,2.33164,-1013.82,-4375.14)">
                <path d="M168.209,2733.54L208.971,2695.38C212.145,2697.1 215.775,2698.07 219.631,2698.07C227.186,2698.07 233.876,2694.33 237.955,2688.61L327.634,2721.92C328.801,2733.23 338.377,2742.07 350,2742.07C355.964,2742.07 361.389,2739.74 365.416,2735.95L453.06,2768.5C453.059,2768.6 453.058,2768.69 453.058,2768.79C453.058,2781.2 463.134,2791.28 475.544,2791.28C487.954,2791.28 498.029,2781.2 498.029,2768.79C498.029,2765.21 497.191,2761.82 495.699,2758.82L530.001,2723.36L530.001,2862.93L419.817,2862.93L419.817,2756.23L278.394,2756.23L278.394,2862.93L168.209,2862.93L168.209,2733.54ZM467.001,2748.02C463.609,2749.39 460.642,2751.58 458.324,2754.34L372.312,2722.39C372.426,2721.47 372.485,2720.54 372.485,2719.59C372.485,2707.18 362.41,2697.1 350,2697.1C342.187,2697.1 335.299,2701.09 331.269,2707.15L242.063,2674.02C241.26,2662.34 231.516,2653.1 219.631,2653.1C207.221,2653.1 197.146,2663.17 197.146,2675.58C197.146,2678.62 197.75,2681.52 198.844,2684.16L168.209,2712.84L168.209,2733.54L147.646,2752.79C148.841,2755.53 149.505,2758.56 149.505,2761.75C149.505,2774.16 139.429,2784.23 127.019,2784.23C114.609,2784.23 104.534,2774.16 104.534,2761.75C104.534,2749.34 114.609,2739.26 127.019,2739.26C130.73,2739.26 134.232,2740.16 137.319,2741.76L168.209,2712.84L168.209,2582.15L278.394,2582.15L278.394,2687.24L419.817,2687.24L419.817,2582.15L530.001,2582.15L530.001,2701.62L484.84,2748.31L483.435,2747.76L482.834,2676.31C490.59,2673.33 496.09,2665.8 496.09,2657C496.09,2645.56 486.804,2636.28 475.366,2636.28C463.929,2636.28 454.643,2645.56 454.643,2657C454.643,2665.22 459.438,2672.33 466.393,2675.66L467.001,2748.02ZM530.001,2701.62L552.825,2678.03C551.334,2675.02 550.495,2671.64 550.495,2668.06C550.495,2655.65 560.571,2645.57 572.981,2645.57C585.391,2645.57 595.466,2655.65 595.466,2668.06C595.466,2680.47 585.391,2690.54 572.981,2690.54C569.666,2690.54 566.518,2689.82 563.684,2688.53L530.001,2723.36L530.001,2701.62Z" style="fill:rgb(242,97,1);"/>
            </g>
            <g transform="matrix(1.64986,0,0,4.52398,-1251.04,-529.348)">
                <path d="M379.769,490.332L393.099,490.332L393.099,516.043L409.772,516.043L409.772,490.332L423.102,490.332L423.102,557.794L409.772,557.794L409.772,527.791L393.099,527.791L393.099,557.794L379.769,557.794L379.769,490.332Z" style="fill:rgb(217,232,245);fill-rule:nonzero;"/>
                <path d="M441.317,490.332L460.566,490.332C469.242,490.332 475.478,491.868 479.273,494.941C481.171,496.477 482.587,498.503 483.521,501.018C484.454,503.534 484.921,506.433 484.921,509.717C484.921,512.247 484.643,514.416 484.085,516.223C483.528,518.031 482.677,519.627 481.532,521.013C480.448,522.338 479.115,523.415 477.533,524.244C475.952,525.072 474.032,525.637 471.772,525.938C473.188,526.27 474.348,526.887 475.252,527.791C475.703,528.243 476.223,528.935 476.81,529.869C477.398,530.803 478.068,532.023 478.821,533.529L491.021,557.794L476.381,557.794L468.248,540.759L467.299,538.771C466.034,536.18 464.738,534.26 463.413,533.01C462.088,531.76 460.581,531.135 458.894,531.135L454.647,531.135L454.647,557.794L441.317,557.794L441.317,490.332ZM460.928,519.929C464.573,519.929 467.194,519.206 468.79,517.76C469.513,517.097 470.085,516.208 470.507,515.094C470.929,513.979 471.14,512.518 471.14,510.711C471.14,507.397 470.356,505.047 468.79,503.662C467.194,502.246 464.573,501.538 460.928,501.538L454.647,501.538L454.647,519.929L460.928,519.929Z" style="fill:rgb(217,232,245);fill-rule:nonzero;"/>
                <path d="M524.871,559.104C520.804,559.104 517.317,558.344 514.41,556.823C511.503,555.301 509.101,553.125 507.203,550.293C503.197,544.389 501.194,535.668 501.194,524.131C501.194,512.654 503.197,503.918 507.203,497.923C509.282,494.851 511.827,492.614 514.84,491.213C517.852,489.812 521.196,489.112 524.871,489.112C532.673,489.112 538.592,492.064 542.629,497.968C546.605,503.873 548.593,512.593 548.593,524.131C548.593,535.608 546.605,544.314 542.629,550.248C540.701,553.11 538.268,555.301 535.331,556.823C532.394,558.344 528.907,559.104 524.871,559.104ZM524.871,547.13C528.305,547.13 530.805,545.308 532.372,541.663C533.938,538.138 534.721,532.279 534.721,524.086C534.721,515.922 533.938,510.078 532.372,506.554C530.805,502.909 528.305,501.086 524.871,501.086C521.497,501.086 519.012,502.909 517.415,506.554C515.849,510.078 515.065,515.922 515.065,524.086C515.065,532.279 515.849,538.138 517.415,541.663C518.982,545.308 521.467,547.13 524.871,547.13Z" style="fill:rgb(217,232,245);fill-rule:nonzero;"/>
                <path d="M564.956,490.332L579.234,490.332C590.29,490.332 598.227,492.953 603.047,498.194C605.427,500.785 607.234,504.211 608.469,508.474C609.705,512.736 610.322,517.925 610.322,524.04C610.322,535.939 607.897,544.54 603.047,549.841C598.197,555.143 590.26,557.794 579.234,557.794L564.956,557.794L564.956,490.332ZM581.9,545.775C587.142,545.775 590.877,544.118 593.106,540.804C595.336,537.491 596.45,531.888 596.45,523.995C596.45,516.163 595.336,510.59 593.106,507.277C590.907,503.993 587.172,502.351 581.9,502.351L578.286,502.351L578.286,545.775L581.9,545.775Z" style="fill:rgb(217,232,245);fill-rule:nonzero;"/>
            </g>
        </g>
    </g>
</svg>
