<?xml version="1.0" encoding="UTF-8" standalone="no"?>
<!DOCTYPE svg PUBLIC "-//W3C//DTD SVG 1.1//EN" "http://www.w3.org/Graphics/SVG/1.1/DTD/svg11.dtd">
<svg width="100%" height="100%" viewBox="0 0 769 768" version="1.1" xmlns="http://www.w3.org/2000/svg" xmlns:xlink="http://www.w3.org/1999/xlink" xml:space="preserve" xmlns:serif="http://www.serif.com/" style="fill-rule:evenodd;clip-rule:evenodd;stroke-linecap:round;stroke-linejoin:round;stroke-miterlimit:1.5;">
    <g transform="matrix(1,0,0,1,-1220.21,-1070.63)">
        <g transform="matrix(0.9055,0,0,0.9055,1226.42,1061.82)">
            <circle cx="419.069" cy="430.627" r="382.782" style="fill:rgb(6,25,40);stroke:black;stroke-width:1.1px;"/>
        </g>
        <g id="cycle-single" serif:id="cycle single" transform="matrix(1.09057,0,0,1.06648,1220.21,1070.63)">
            <rect x="0" y="0" width="705.116" height="720" style="fill:none;"/>
            <g transform="matrix(0.873016,0,0,0.89763,-232.8,-18.8428)">
                <g transform="matrix(0.985938,0,0,1.10252,17.2867,-36.8843)">
                    <path d="M426.466,353.837C426.466,346.178 419.513,339.961 410.949,339.961L377.065,339.961C368.501,339.961 361.548,346.178 361.548,353.837L361.548,356.92C361.548,364.579 368.501,370.796 377.065,370.796L410.949,370.796C419.513,370.796 426.466,364.579 426.466,356.92L426.466,353.837Z" style="fill:rgb(245,250,253);"/>
                </g>
                <path d="M638.136,489.238L364.121,489.238C355.06,489.241 346.891,483.808 343.433,475.478C342.643,473.54 342.21,471.659 342.125,469.828C341.903,465.006 344.094,460.536 348.372,456.369C352.187,452.638 357.323,450.547 362.674,450.547C387.806,450.544 475.163,450.544 475.163,450.544C463.738,443.803 463.151,430.237 470.859,422.073C474.347,418.419 479.185,416.343 484.25,416.324C502.895,416.251 588.601,416.036 591.229,415.804C610.391,414.117 611.131,393.68 608.596,386.52C607.523,383.488 604.133,374.192 591.229,372.599C585.418,371.882 505.408,373.029 485.554,373.326C478.886,373.41 472.719,369.811 469.54,363.98C465.243,356.141 466.465,345.888 475.435,340.259C478.51,338.349 482.056,337.321 485.681,337.289C506.873,337.07 627.906,336.01 627.906,336.01C644.689,280.045 687.509,271.398 715.4,271.026C715.422,271.026 715.444,271.025 715.466,271.025C717.868,270.961 785.123,269.867 806.179,346.079C806.698,347.959 805.974,351.983 807.804,351.579C811.774,350.702 816.567,350.74 821.745,351.385C854.108,355.396 877.906,383.517 876.356,415.916C876.162,420.563 875.835,425.01 875.326,428.95C891.551,433.103 903.942,444.406 913.077,456.86C931.463,481.813 931.635,515.693 913.502,540.829C907.001,549.94 899.1,558.118 890.132,562.231C887.285,563.536 878.724,565.612 878.724,565.612C878.724,565.612 516.481,567.063 483.085,567.197C480.128,567.208 477.219,566.453 474.646,565.005C462.68,558.275 462.606,540.941 474.458,533.74C477.304,532.033 480.564,531.13 483.888,531.129C504.424,531.087 640.315,531.037 640.315,531.037L684.27,531.037L684.27,472.393L726.886,472.393L726.886,531.037L773.021,531.037L773.021,371.927L726.886,371.927L726.886,428.297L684.27,428.297L684.27,371.927L638.136,371.927L638.136,489.238Z" style="fill:rgb(245,250,253);"/>
            </g>
        </g>
    </g>
</svg>
